<svg xmlns="http://www.w3.org/2000/svg" viewBox="0 0 200 200" width="200" height="200">
  <defs>
    <radialGradient id="bg" cx="50%" cy="36%" r="78%">
      <stop offset="0%" stop-color="#16305c"/>
      <stop offset="100%" stop-color="#0c1c38"/>
    </radialGradient>
    <clipPath id="frame"><circle cx="100" cy="100" r="100"/></clipPath>
  </defs>
  <circle cx="100" cy="100" r="100" fill="url(#bg)"/>
  <g clip-path="url(#frame)">
    <path d="M18 200c0-34 12-56 40-66 12-4 26-6 42-6s30 2 42 6c28 10 40 32 40 66z" fill="#6d7f9e"/>
    <path d="M78 132h44v14a22 22 0 0 1-44 0z" fill="#5a6b87"/>
    <circle cx="100" cy="92" r="34" fill="#6d7f9e"/>
    <path d="M62 62h76q8 0 8 5t-9 6H63q-9-1-9-6t8-5z" fill="#5a6b87"/>
    <path d="M74 62q4-20 26-20t26 20z" fill="#5a6b87"/>
  </g>
</svg>
