<svg xmlns="http://www.w3.org/2000/svg" viewBox="0 0 64 96" preserveAspectRatio="xMidYMid meet">
  <!-- Corner ranks: top-left upright, bottom-right rotated 180°. -->
  <g fill="#e0a51e" font-weight="700" font-family="'Georgia', serif">
    <text x="6" y="15" font-size="13">K</text>
  </g>
  <g transform="translate(4 16.5) scale(0.4583333333333333)">
  <path d="M9.6 7C9.6 4.6 14.4 4.6 14.4 7" fill="none" stroke="#a9740c" stroke-width="1.5" />
  <circle cx="12" cy="14" r="7" fill="#e0a51e" />
  <circle cx="9.6" cy="11.4" r="1.9" fill="#f6d264" opacity="0.6" />
  <rect x="6.6" y="15.4" width="10.8" height="1.9" rx="0.9" fill="#a9740c" />
  <circle cx="12" cy="19.4" r="1.1" fill="#a9740c" />
</g>

  <g transform="rotate(180 32 48)">
    <text x="6" y="15" font-size="13" fill="#e0a51e" font-weight="700" font-family="'Georgia', serif">K</text>
    <g transform="translate(4 16.5) scale(0.4583333333333333)">
  <path d="M9.6 7C9.6 4.6 14.4 4.6 14.4 7" fill="none" stroke="#a9740c" stroke-width="1.5" />
  <circle cx="12" cy="14" r="7" fill="#e0a51e" />
  <circle cx="9.6" cy="11.4" r="1.9" fill="#f6d264" opacity="0.6" />
  <rect x="6.6" y="15.4" width="10.8" height="1.9" rx="0.9" fill="#a9740c" />
  <circle cx="12" cy="19.4" r="1.1" fill="#a9740c" />
</g>
  </g>

  <!-- Centre motif -->
<g>
  <!-- Robe -->
  <path d="M20 82 L26 42 L38 42 L44 82 Z" fill="#e0a51e" />
  <path d="M32 42 L32 82" stroke="#a9740c" stroke-width="1" opacity="0.5" />
  <rect x="25" y="60" width="14" height="3" fill="#a9740c" />
  <!-- Cape / shoulders -->
  <path d="M24 44 Q32 34 40 44 L38 49 Q32 44 26 49 Z" fill="#a9740c" />
  <!-- Neck + head -->
  <rect x="30" y="35" width="4" height="4" fill="#e8bd93" />
  <circle cx="32" cy="30" r="6" fill="#e8bd93" />
  <circle cx="30" cy="30" r="0.7" fill="#a9740c" />
  <circle cx="34" cy="30" r="0.7" fill="#a9740c" />
  <g>
      <path d="M25 21 L27 13 L30 19 L32 11 L34 19 L37 13 L39 21 Z" fill="#f6d264" stroke="#a9740c" stroke-width="0.5" />
      <rect x="25" y="21" width="14" height="3" fill="#f6d264" stroke="#a9740c" stroke-width="0.5" />
      <circle cx="32" cy="22.5" r="1" fill="#e0a51e" />
    </g>
  <!-- Suit emblem, placed high (Ober/König) or low (Unter) -->
  <g transform="translate(23 21) scale(0.75)">
  <path d="M9.6 7C9.6 4.6 14.4 4.6 14.4 7" fill="none" stroke="#a9740c" stroke-width="1.5" />
  <circle cx="12" cy="14" r="7" fill="#e0a51e" />
  <circle cx="9.6" cy="11.4" r="1.9" fill="#f6d264" opacity="0.6" />
  <rect x="6.6" y="15.4" width="10.8" height="1.9" rx="0.9" fill="#a9740c" />
  <circle cx="12" cy="19.4" r="1.1" fill="#a9740c" />
</g>
</g>
</svg>