<svg xmlns="http://www.w3.org/2000/svg" viewBox="0 0 64 96" preserveAspectRatio="xMidYMid meet">
  <!-- Corner ranks: top-left upright, bottom-right rotated 180°. -->
  <g fill="#cc2b2b" font-weight="700" font-family="'Georgia', serif">
    <text x="6" y="15" font-size="13">8</text>
  </g>
  <g transform="translate(4 16.5) scale(0.4583333333333333)">
  <path d="M12 21.5C4.8 15.4 3 10.4 6.6 6.4C9.1 3.7 12 5.6 12 8.2C12 5.6 14.9 3.7 17.4 6.4C21 10.4 19.2 15.4 12 21.5Z" fill="#cc2b2b" />
  <path d="M12 8.2C12 5.6 9.1 3.7 6.6 6.4C4.7 8.5 4.6 11 5.5 13.4C6 9.9 8.4 7.5 12 8.2Z" fill="#ef6a5c" opacity="0.5" />
</g>

  <g transform="rotate(180 32 48)">
    <text x="6" y="15" font-size="13" fill="#cc2b2b" font-weight="700" font-family="'Georgia', serif">8</text>
    <g transform="translate(4 16.5) scale(0.4583333333333333)">
  <path d="M12 21.5C4.8 15.4 3 10.4 6.6 6.4C9.1 3.7 12 5.6 12 8.2C12 5.6 14.9 3.7 17.4 6.4C21 10.4 19.2 15.4 12 21.5Z" fill="#cc2b2b" />
  <path d="M12 8.2C12 5.6 9.1 3.7 6.6 6.4C4.7 8.5 4.6 11 5.5 13.4C6 9.9 8.4 7.5 12 8.2Z" fill="#ef6a5c" opacity="0.5" />
</g>
  </g>

  <!-- Centre motif -->
<g transform="translate(19 41) scale(1.0833333333333333)">
  <path d="M12 21.5C4.8 15.4 3 10.4 6.6 6.4C9.1 3.7 12 5.6 12 8.2C12 5.6 14.9 3.7 17.4 6.4C21 10.4 19.2 15.4 12 21.5Z" fill="#cc2b2b" />
  <path d="M12 8.2C12 5.6 9.1 3.7 6.6 6.4C4.7 8.5 4.6 11 5.5 13.4C6 9.9 8.4 7.5 12 8.2Z" fill="#ef6a5c" opacity="0.5" />
</g>
</svg>