<svg xmlns="http://www.w3.org/2000/svg" viewBox="0 0 64 96" preserveAspectRatio="xMidYMid meet">
  <!-- Corner ranks: top-left upright, bottom-right rotated 180°. -->
  <g fill="#3a8a3d" font-weight="700" font-family="'Georgia', serif">
    <text x="6" y="15" font-size="13">9</text>
  </g>
  <g transform="translate(4 16.5) scale(0.4583333333333333)">
  <path d="M12 22C4.6 17.4 5.6 8 12 2C18.4 8 19.4 17.4 12 22Z" fill="#3a8a3d" />
  <path d="M12 2C8.2 6 6.8 12 9 18C7.2 12 8.8 6.5 12 4Z" fill="#6fbf5f" opacity="0.5" />
  <path d="M12 4V20" stroke="#1f5c22" stroke-width="0.8" />
  <path d="M12 8L8.6 6.2M12 8L15.4 6.2M12 12.5L8 10.5M12 12.5L16 10.5M12 16.5L9 15M12 16.5L15 15" stroke="#1f5c22" stroke-width="0.5" opacity="0.7" />
</g>

  <g transform="rotate(180 32 48)">
    <text x="6" y="15" font-size="13" fill="#3a8a3d" font-weight="700" font-family="'Georgia', serif">9</text>
    <g transform="translate(4 16.5) scale(0.4583333333333333)">
  <path d="M12 22C4.6 17.4 5.6 8 12 2C18.4 8 19.4 17.4 12 22Z" fill="#3a8a3d" />
  <path d="M12 2C8.2 6 6.8 12 9 18C7.2 12 8.8 6.5 12 4Z" fill="#6fbf5f" opacity="0.5" />
  <path d="M12 4V20" stroke="#1f5c22" stroke-width="0.8" />
  <path d="M12 8L8.6 6.2M12 8L15.4 6.2M12 12.5L8 10.5M12 12.5L16 10.5M12 16.5L9 15M12 16.5L15 15" stroke="#1f5c22" stroke-width="0.5" opacity="0.7" />
</g>
  </g>

  <!-- Centre motif -->
<g transform="translate(19 41) scale(1.0833333333333333)">
  <path d="M12 22C4.6 17.4 5.6 8 12 2C18.4 8 19.4 17.4 12 22Z" fill="#3a8a3d" />
  <path d="M12 2C8.2 6 6.8 12 9 18C7.2 12 8.8 6.5 12 4Z" fill="#6fbf5f" opacity="0.5" />
  <path d="M12 4V20" stroke="#1f5c22" stroke-width="0.8" />
  <path d="M12 8L8.6 6.2M12 8L15.4 6.2M12 12.5L8 10.5M12 12.5L16 10.5M12 16.5L9 15M12 16.5L15 15" stroke="#1f5c22" stroke-width="0.5" opacity="0.7" />
</g>
</svg>