<svg xmlns="http://www.w3.org/2000/svg" viewBox="0 0 64 96" preserveAspectRatio="xMidYMid meet">
  <!-- Corner ranks: top-left upright, bottom-right rotated 180°. -->
  <g fill="#3a8a3d" font-weight="700" font-family="'Georgia', serif">
    <text x="6" y="15" font-size="13">O</text>
  </g>
  <g transform="translate(4 16.5) scale(0.4583333333333333)">
  <path d="M12 22C4.6 17.4 5.6 8 12 2C18.4 8 19.4 17.4 12 22Z" fill="#3a8a3d" />
  <path d="M12 2C8.2 6 6.8 12 9 18C7.2 12 8.8 6.5 12 4Z" fill="#6fbf5f" opacity="0.5" />
  <path d="M12 4V20" stroke="#1f5c22" stroke-width="0.8" />
  <path d="M12 8L8.6 6.2M12 8L15.4 6.2M12 12.5L8 10.5M12 12.5L16 10.5M12 16.5L9 15M12 16.5L15 15" stroke="#1f5c22" stroke-width="0.5" opacity="0.7" />
</g>

  <g transform="rotate(180 32 48)">
    <text x="6" y="15" font-size="13" fill="#3a8a3d" font-weight="700" font-family="'Georgia', serif">O</text>
    <g transform="translate(4 16.5) scale(0.4583333333333333)">
  <path d="M12 22C4.6 17.4 5.6 8 12 2C18.4 8 19.4 17.4 12 22Z" fill="#3a8a3d" />
  <path d="M12 2C8.2 6 6.8 12 9 18C7.2 12 8.8 6.5 12 4Z" fill="#6fbf5f" opacity="0.5" />
  <path d="M12 4V20" stroke="#1f5c22" stroke-width="0.8" />
  <path d="M12 8L8.6 6.2M12 8L15.4 6.2M12 12.5L8 10.5M12 12.5L16 10.5M12 16.5L9 15M12 16.5L15 15" stroke="#1f5c22" stroke-width="0.5" opacity="0.7" />
</g>
  </g>

  <!-- Centre motif -->
<g>
  <!-- Robe -->
  <path d="M20 82 L26 42 L38 42 L44 82 Z" fill="#3a8a3d" />
  <path d="M32 42 L32 82" stroke="#1f5c22" stroke-width="1" opacity="0.5" />
  <rect x="25" y="60" width="14" height="3" fill="#1f5c22" />
  <!-- Cape / shoulders -->
  <path d="M24 44 Q32 34 40 44 L38 49 Q32 44 26 49 Z" fill="#1f5c22" />
  <!-- Neck + head -->
  <rect x="30" y="35" width="4" height="4" fill="#e8bd93" />
  <circle cx="32" cy="30" r="6" fill="#e8bd93" />
  <circle cx="30" cy="30" r="0.7" fill="#1f5c22" />
  <circle cx="34" cy="30" r="0.7" fill="#1f5c22" />
  <g>
      <path d="M23 21 Q32 8 41 21 Z" fill="#1f5c22" />
      <ellipse cx="32" cy="21" rx="12" ry="2.6" fill="#1f5c22" />
      <path d="M40 20 Q47 11 43 6" fill="none" stroke="#6fbf5f" stroke-width="1.6" stroke-linecap="round" />
    </g>
  <!-- Suit emblem, placed high (Ober/König) or low (Unter) -->
  <g transform="translate(23 21) scale(0.75)">
  <path d="M12 22C4.6 17.4 5.6 8 12 2C18.4 8 19.4 17.4 12 22Z" fill="#3a8a3d" />
  <path d="M12 2C8.2 6 6.8 12 9 18C7.2 12 8.8 6.5 12 4Z" fill="#6fbf5f" opacity="0.5" />
  <path d="M12 4V20" stroke="#1f5c22" stroke-width="0.8" />
  <path d="M12 8L8.6 6.2M12 8L15.4 6.2M12 12.5L8 10.5M12 12.5L16 10.5M12 16.5L9 15M12 16.5L15 15" stroke="#1f5c22" stroke-width="0.5" opacity="0.7" />
</g>
</g>
</svg>